<mxfile host="app.diagrams.net" modified="2021-12-06T02:16:02.756Z" agent="5.0 (Macintosh)" etag="iShUfalYnNvROCgsHb4k" version="15.9.1" type="github">
  <diagram id="FrNqfCykjnulnTMpAR0O" name="Page-1">
    <mxGraphModel dx="1186" dy="645" grid="1" gridSize="10" guides="1" tooltips="1" connect="1" arrows="1" fold="1" page="1" pageScale="1" pageWidth="827" pageHeight="1169" math="0" shadow="0">
      <root>
        <mxCell id="0" />
        <mxCell id="1" parent="0" />
        <mxCell id="F2bi2Dsncj7B-TMTEU1s-47" value="NFS Server" style="shape=datastore;whiteSpace=wrap;html=1;" parent="1" vertex="1">
          <mxGeometry x="280" y="1060" width="60" height="60" as="geometry" />
        </mxCell>
        <mxCell id="F2bi2Dsncj7B-TMTEU1s-50" value="node106" style="shape=datastore;whiteSpace=wrap;html=1;" parent="1" vertex="1">
          <mxGeometry x="190" y="910" width="60" height="60" as="geometry" />
        </mxCell>
        <mxCell id="F2bi2Dsncj7B-TMTEU1s-51" value="node107" style="shape=datastore;whiteSpace=wrap;html=1;" parent="1" vertex="1">
          <mxGeometry x="300" y="910" width="60" height="60" as="geometry" />
        </mxCell>
        <mxCell id="F2bi2Dsncj7B-TMTEU1s-52" value="node108" style="shape=datastore;whiteSpace=wrap;html=1;" parent="1" vertex="1">
          <mxGeometry x="413.5" y="910" width="60" height="60" as="geometry" />
        </mxCell>
      </root>
    </mxGraphModel>
  </diagram>
</mxfile>
